<svg xmlns="http://www.w3.org/2000/svg" viewBox="0 0 480 320" width="480" height="320"><rect width="480" height="320" rx="16" fill="#F3F5F9"/><rect x="40" y="60" width="400" height="40" rx="10" fill="#FFFFFF"/><rect x="60" y="75" width="220" height="10" rx="5" fill="#C9D1DC"/><path d="M410 74 l8 8 l8 -8" stroke="#8A93A3" stroke-width="3" fill="none" stroke-linecap="round"/><rect x="40" y="112" width="400" height="40" rx="10" fill="#FFFFFF"/><rect x="60" y="127" width="260" height="10" rx="5" fill="#C9D1DC"/><path d="M410 126 l8 8 l8 -8" stroke="#8A93A3" stroke-width="3" fill="none" stroke-linecap="round"/><rect x="40" y="164" width="400" height="40" rx="10" fill="#FFFFFF"/><rect x="60" y="179" width="190" height="10" rx="5" fill="#C9D1DC"/><path d="M410 178 l8 8 l8 -8" stroke="#8A93A3" stroke-width="3" fill="none" stroke-linecap="round"/><rect x="40" y="216" width="400" height="40" rx="10" fill="#FFFFFF"/><rect x="60" y="231" width="240" height="10" rx="5" fill="#C9D1DC"/><path d="M410 230 l8 8 l8 -8" stroke="#8A93A3" stroke-width="3" fill="none" stroke-linecap="round"/></svg>
