<svg xmlns="http://www.w3.org/2000/svg" viewBox="0 0 480 320" width="480" height="320"><rect width="480" height="320" rx="16" fill="#F3F5F9"/><rect x="40" y="52" width="170" height="16" rx="5" fill="#C9D1DC"/><rect x="40" y="96" width="92" height="120" rx="10" fill="#DCE2EA"/><rect x="48" y="226" width="70" height="10" rx="5" fill="#C9D1DC"/><rect x="48" y="244" width="44" height="10" rx="5" fill="#AEBBEF"/><rect x="144" y="96" width="92" height="120" rx="10" fill="#DCE2EA"/><rect x="152" y="226" width="70" height="10" rx="5" fill="#C9D1DC"/><rect x="152" y="244" width="44" height="10" rx="5" fill="#AEBBEF"/><rect x="248" y="96" width="92" height="120" rx="10" fill="#DCE2EA"/><rect x="256" y="226" width="70" height="10" rx="5" fill="#C9D1DC"/><rect x="256" y="244" width="44" height="10" rx="5" fill="#AEBBEF"/><rect x="352" y="96" width="92" height="120" rx="10" fill="#DCE2EA"/><rect x="360" y="226" width="70" height="10" rx="5" fill="#C9D1DC"/><rect x="360" y="244" width="44" height="10" rx="5" fill="#AEBBEF"/><rect x="372" y="52" width="68" height="22" rx="11" fill="#FFFFFF"/></svg>
